<?xml version="1.0" encoding="utf-8"?>
<!-- Generator: Adobe Illustrator 21.0.0, SVG Export Plug-In . SVG Version: 6.00 Build 0)  -->
<svg version="1.1" id="Layer_1" xmlns="http://www.w3.org/2000/svg" xmlns:xlink="http://www.w3.org/1999/xlink" x="0px" y="0px"
	 viewBox="0 0 512 512" style="enable-background:new 0 0 512 512;" xml:space="preserve">
<style type="text/css">
	.st0{clip-path:url(#SVGID_2_);fill:#FFFFFF;}
	.st1{clip-path:url(#SVGID_4_);fill:#FFFFFF;}
	.st2{clip-path:url(#SVGID_6_);fill:#FFFFFF;}
	.st3{clip-path:url(#SVGID_8_);fill:#FFFFFF;}
	.st4{clip-path:url(#SVGID_10_);fill:#FFFFFF;}
	.st5{clip-path:url(#SVGID_12_);fill:#FFFFFF;}
	.st6{clip-path:url(#SVGID_14_);fill:#FFFFFF;}
	.st7{clip-path:url(#SVGID_16_);fill:#FFFFFF;}
</style>
<g>
	<g>
		<defs>
			<rect id="SVGID_1_" width="512" height="512"/>
		</defs>
		<clipPath id="SVGID_2_">
			<use xlink:href="#SVGID_1_"  style="overflow:visible;"/>
		</clipPath>
		<path class="st0" d="M326.8,228c1,0.3,1.9,0.5,2.9,0.5c3.8,0,7.3-2.4,8.5-6.1c2.8-8.3,11.8-12.7,20.1-9.9c17.7,6,37-3.5,43-21.2
			c1.6-4.7-0.9-9.8-5.6-11.4c-4.7-1.6-9.8,0.9-11.4,5.6c-2.8,8.3-11.8,12.7-20.1,9.9c-17.7-6-37,3.5-43,21.2
			C319.6,221.3,322.1,226.4,326.8,228z"/>
	</g>
	<g>
		<defs>
			<rect id="SVGID_3_" width="512" height="512"/>
		</defs>
		<clipPath id="SVGID_4_">
			<use xlink:href="#SVGID_3_"  style="overflow:visible;"/>
		</clipPath>
		<path class="st1" d="M348.1,165.3c1,0.3,1.9,0.5,2.9,0.5c3.8,0,7.3-2.4,8.5-6.1c1.4-4,4.2-7.3,8-9.1c3.8-1.9,8.1-2.1,12.1-0.8
			c17.7,6,37-3.5,43-21.2c1.6-4.7-0.9-9.8-5.6-11.4s-9.8,0.9-11.4,5.6c-2.8,8.3-11.8,12.7-20.1,9.9c-8.6-2.9-17.8-2.3-25.9,1.7
			s-14.2,10.9-17.1,19.5C340.9,158.5,343.4,163.6,348.1,165.3z"/>
	</g>
	<g>
		<defs>
			<rect id="SVGID_5_" width="512" height="512"/>
		</defs>
		<clipPath id="SVGID_6_">
			<use xlink:href="#SVGID_5_"  style="overflow:visible;"/>
		</clipPath>
		<path class="st2" d="M369.4,102.5c1,0.3,1.9,0.5,2.9,0.5c3.8,0,7.3-2.4,8.5-6.1c2.1-6.1,8.7-9.4,14.8-7.3c7.5,2.5,15.6,2,22.7-1.5
			s12.4-9.6,15-17.1c1.6-4.7-0.9-9.8-5.6-11.4c-4.7-1.6-9.8,0.9-11.4,5.6c-1,3-3.1,5.4-5.9,6.7c-2.8,1.4-6,1.6-8.9,0.6
			c-15.5-5.2-32.4,3.1-37.7,18.6C362.2,95.7,364.7,100.9,369.4,102.5z"/>
	</g>
	<g>
		<defs>
			<rect id="SVGID_7_" width="512" height="512"/>
		</defs>
		<clipPath id="SVGID_8_">
			<use xlink:href="#SVGID_7_"  style="overflow:visible;"/>
		</clipPath>
		<path class="st3" d="M406.1,462.4c-0.9,17.7-15.5,31.6-33.3,31.6H119.9c-17.8,0-32.4-13.9-33.3-31.8l-15-213l7.8,4.7
			c8.5,5.1,18,7.6,27.6,7.6c9.5,0.1,19.1-2.5,27.6-7.6l3.1-1.9c4.4-2.7,9.4-4,14.4-4c5,0.1,9.9,1.4,14.4,4l6.4,3.9
			c8.1,4.9,17.3,7,26.4,6.5c0.8,0,1.6,0,2.4-0.1c0.1,0,0.2-0.1,0.3-0.1c6.2-0.7,12.2-2.6,17.8-5.8c0.5-0.2,1.1-0.2,1.6-0.5l6.4-3.9
			c4.4-2.7,9.4-4,14.4-4c5,0.1,9.9,1.4,14.4,4l6.4,3.9c6.8,4.1,14.4,6.2,22,6.5c0.2,0,0.3,0,0.5,0c2.6,0.1,5.3,0,7.9-0.4
			c1.5-0.2,2.9-0.6,4.4-0.9c0.7-0.2,1.4-0.3,2.1-0.5c4-1.1,7.9-2.6,11.6-4.7l6.4-3.9c4.4-2.7,9.4-4,14.4-4c5,0.1,9.9,1.4,14.4,4
			l6.4,3.9c7.4,4.5,15.8,6.6,24.1,6.6c0.1,0,0.3,0,0.4,0c8.1,0,16.2-2.1,23.5-6.3l17.7-7.9c0.4-0.2,0.6-0.5,1-0.7l1.4-0.6
			L406.1,462.4z M73.6,211.7c3.8-7.2,13.1-12.7,29.1-17.3c7.5-2.1,14.5-6.2,20.1-11.6c2.6-2.5,5-4.5,7.3-6.4
			c7.3-5.9,13.5-9.1,19.2-9.8c0.1,0,0.3,0,0.4,0c1.8-0.2,3.5-0.1,5.2,0.2c0.4,0.1,0.9,0.2,1.3,0.4c0.8,0.2,1.7,0.4,2.5,0.7
			c0.5,0.2,1.1,0.5,1.6,0.8c0.8,0.4,1.6,0.7,2.3,1.2c0.6,0.4,1.2,0.8,1.8,1.3c0.7,0.5,1.5,1,2.2,1.6c0.7,0.5,1.4,1.2,2.1,1.8
			c0.7,0.6,1.4,1.2,2.1,1.9c0.8,0.8,1.5,1.7,2.3,2.5c0.6,0.7,1.2,1.3,1.9,2.1c0.9,1,1.7,2.2,2.6,3.3c0.5,0.7,1.1,1.4,1.6,2.1
			c1,1.4,2,2.9,3,4.4c0.4,0.7,0.9,1.3,1.3,1.9c1.4,2.3,2.9,4.7,4.3,7.2c6.6,11.7,8.8,29,5.9,44.1c-0.5,0-0.9-0.1-1.4-0.2
			c-3.4-0.6-6.7-1.7-9.7-3.5l-6.4-3.9c-7.4-4.4-15.7-6.6-23.9-6.6c-0.1,0-0.2,0-0.3,0c-8.4-0.1-16.8,2.1-24.3,6.6l-3.1,1.9
			c-5.5,3.3-11.6,4.9-17.7,5c-6.1-0.1-12.2-1.7-17.7-5l-12.1-7.3l0,0c-1.6-0.9-3.3-1.6-5.1-1.9C70.7,222.1,71.2,216.3,73.6,211.7z
			 M131.5,136.9l5.9-4.9l-3.8-6.6c-2.4-4.1-3.7-8.8-3.7-13.6c0-14.6,11.4-26.5,26-27.1l10.9-0.5l-2.5-10.7c-0.4-1.8-0.6-3.5-0.6-5.2
			c0-11.6,9.1-21.4,20.6-22.3l8.3-0.6v-9c0.3-8.1,6.9-14.6,15.1-14.6c4.7,0,8.1,2.1,10.1,3.9l6.3,5.7l6.1-6c2.8-2.7,6.6-4,10.5-3.6
			c4.8,0.6,9.2,4.3,10.6,9.2c0.5,1.6,0.6,3.2,0.4,4.8l-1.1,10.1h10.1c12.9,0,23.8,10.1,24.7,23l0.4,5.9l5.6,2
			c14.1,4.9,23.3,18.3,23,33.2c-0.1,6.4-2.2,12.5-5.9,17.9c-6-5.1-12.5-8.6-18-11.4c-1.4-0.7-2.8-1.5-4.2-2.2
			c-0.4-0.2-0.9-0.6-1-1.5c-0.2-1.3,0.3-2.9,1.3-4c3.9-4.6,5.5-10.8,4.2-16.6l-1.1-5c-1.1-5-4.1-9.3-8.4-12.1
			c-4.3-2.8-9.5-3.7-14.5-2.6l-2.4,0.5h-0.1l-26.4,5.8l-25.8,5.6c-5,1.1-9.3,4.1-12.1,8.4s-3.7,9.5-2.6,14.5l0.5,2.5l0,0l0,0
			l0.5,2.4c1.3,6,5.5,11.1,11.1,13.5c1.4,0.6,2.6,1.7,3,2.9c0.2,0.7,0.1,1-0.4,1.9l0,0c-0.9,1.2-1.9,2.4-2.8,3.7c-1,1.3-2,2.6-3.1,4
			c-0.4,0.5-0.7,0.9-1,1.4c-0.7,1-1.5,2.1-2.2,3.1c-0.4,0.6-0.8,1.2-1.2,1.8c-0.7,1.1-1.3,2.1-2,3.3c-0.4,0.6-0.7,1.3-1.1,2
			c-0.7,1.3-1.3,2.6-1.9,3.9c-0.3,0.6-0.5,1.1-0.8,1.7c-0.8,2-1.5,4-2.1,6.2c-0.1,0.3-0.1,0.7-0.2,1.1c-0.4,1.8-0.8,3.7-1,5.7
			c-0.1,0.8-0.1,1.6-0.2,2.4c-0.1,1.1-0.2,2.1-0.2,3.2l-0.1-0.1c-0.1-0.2-0.3-0.3-0.4-0.5c-1.6-2.1-3.1-4-4.7-5.8
			c-0.5-0.6-1-1.1-1.5-1.7c-1.3-1.4-2.6-2.8-4-4c-0.4-0.4-0.9-0.8-1.3-1.2c-1.7-1.5-3.4-2.9-5.1-4.1c-0.5-0.3-1-0.6-1.4-1
			c-1.3-0.9-2.6-1.6-3.9-2.4c-0.6-0.3-1.3-0.7-1.9-1c-1.3-0.7-2.7-1.2-4.1-1.7c-0.5-0.2-0.9-0.4-1.4-0.5c-1.5-0.5-3-0.8-4.5-1.1
			c-0.2,0-0.3,0-0.5,0c-0.3-0.1-0.6-0.2-0.9-0.2c-1-0.2-2-0.1-3.1-0.2c-0.7,0-1.4-0.2-2.2-0.2c-0.2,0-0.4,0.1-0.7,0.1
			c-1.4,0-2.7,0.2-4.1,0.4c-0.7,0.1-1.4,0.1-2,0.3c-1.8,0.3-3.5,0.8-5.2,1.3c-0.3,0.1-0.5,0.1-0.8,0.2c-4.5,1.5-8.7,3.7-12.7,6.3
			c-0.8-2-1.3-4.2-1.3-6.5C125.1,145.2,127.5,140.2,131.5,136.9z M239.3,230.1c-0.7,0-1.4,0.1-2.1,0.1c-4.9,0.5-9.8,1.7-14.4,3.8
			l-1.7-7.9c2.6,0.2,5.2,0.4,7.6,0.4c15.7,0,28.4-4.7,42.9-15c4.6-3.3,8.6-5.7,12.5-7.8c-0.8,2.4-1.6,4.7-2.5,7.1
			c-0.6,1.7-1.2,3.4-1.8,5.1c-2.6,8-5.2,16.1-7.5,24.3l-6-3.6c-7.4-4.4-15.7-6.6-23.9-6.6c-0.1,0-0.2,0-0.3,0
			C241.2,229.9,240.3,230,239.3,230.1z M268.4,90.7c0.2,0,0.5-0.1,0.7-0.1c1.7,0,3.3,1.2,3.7,2.9c0.3,1.3-0.2,2.3-0.5,2.8
			s-1,1.3-2.3,1.6l-49.8,10.9c-2,0.4-4-0.9-4.4-2.8c-0.4-2,0.9-4,2.8-4.4l26.4-5.8L268.4,90.7z M223.7,145.4
			c1.1-1.4,2.1-2.7,3.1-3.9l0,0c0.7-0.9,1.3-1.9,1.9-2.9c2.2-4.2,2.7-8.9,1.7-13.4L268,117c0.3,1.2,0.5,2.3,1,3.4
			c1.7,4.1,4.7,7.6,8.9,10c1.4,0.8,2.8,1.5,4.3,2.3c1.2,0.6,2.4,1.3,3.7,2c0.6,0.3,1.2,0.6,1.8,1c1.1,0.6,2.1,1.3,3.2,1.9
			c0.9,0.5,1.8,1.1,2.6,1.7c1,0.7,2,1.5,2.9,2.2c0.8,0.7,1.6,1.4,2.4,2.2c0.9,0.8,1.7,1.7,2.5,2.6c1.4,1.7,2.7,3.4,3.8,5.4
			c-3.8,8.4-7.4,17-10.9,25.7c-0.5,1.3-1.1,2.6-1.6,4c-9.9,2.5-19.4,7.2-31.2,15.6c-14.8,10.6-25.9,13.4-44.1,10.7l-5.5-25
			C207.9,165.6,216,155.3,223.7,145.4z M338.6,124c3.6-6.7,7.5-14.9,11.6-23.7c13.5-28.8,32.1-68.1,53.6-79.2
			c7.8-4,14.6-4.1,20.6-0.3c10.4,6.6,16.6,23.1,16.3,34.7c-1.4,53.3-11.1,109.3-28.9,166.6c-0.6,1.9-1.9,5.7-3.7,10.9l-15.4,6.8
			c-0.3,0.2-0.7,0.3-1,0.5c-4.4,2.7-9.4,4-14.4,4c-5-0.1-9.9-1.4-14.4-4l-6.4-3.9c-7.4-4.4-15.7-6.6-23.9-6.6c-0.1,0-0.2,0-0.3,0
			c-8.4-0.1-16.8,2.1-24.3,6.6l-6.4,3.9c-3.6,2.1-7.5,3.2-11.5,3.6c0.2-0.8,0.5-1.5,0.7-2.3c2.5-8.4,5.1-16.7,7.9-24.9
			c1.1-3.1,2.2-6.2,3.3-9.3c2.3-6.5,4.7-12.9,7.2-19.3c1.1-2.9,2.2-5.7,3.4-8.6C320.4,160.5,329.1,141.9,338.6,124z M434.7,227.4
			c-1.6-1.1-3.3-1.7-5.1-1.9c17.9-58.2,27.7-115.2,29.1-169.5c0.4-17.1-7.9-39.9-24.7-50.4c-8.1-5.1-21.3-9.3-38.5-0.4
			c-26.9,13.9-46.2,54.7-61.6,87.6c-0.9,1.9-1.8,3.7-2.6,5.6c-3.4-15.7-13.8-29.1-28.6-36.1c-3.5-16.7-16.7-29.8-33.4-33.2
			c-0.2-0.9-0.4-1.9-0.7-2.8c-3.4-11.7-13.8-20.6-25.8-22c-6.7-0.8-13.4,0.6-19.1,3.9C218.8,5.5,213.4,4,207.8,4
			c-15.7,0-28.8,10.9-32.3,25.6c-17.1,4.7-29.7,20.4-29.8,38.7c-19.5,5-33.8,22.7-33.8,43.7c0,5.6,1,11.1,3.1,16.3
			c-5.1,6.3-7.9,14.1-7.9,22.3c0,4.9,1,9.7,2.9,14.1c-9-9.8-21.7-17.8-35.9-17.3c-5,0.2-8.9,4.3-8.7,9.3c0.2,4.9,4.2,8.7,9,8.7
			c0.3,0,0.6,0,0.9,0c8.4,0,16.3,5.6,22,12.1c-14.3,4.1-31.5,10.8-39.6,26c-4.8,9.1-5.4,20.4-2.2,33.2c-1.6,2.6-2.4,5.6-2.3,8.9
			l15.3,217.9c1.5,27.1,24,48.5,51.4,48.5h252.9c27.4,0,49.9-21.4,51.3-48.6l15.7-225.5c0-0.1,0-0.1,0-0.2
			C440.1,233.6,438.2,229.7,434.7,227.4z"/>
	</g>
	<g>
		<defs>
			<rect id="SVGID_9_" width="512" height="512"/>
		</defs>
		<clipPath id="SVGID_10_">
			<use xlink:href="#SVGID_9_"  style="overflow:visible;"/>
		</clipPath>
		<path class="st4" d="M107.3,387.5h63.1c5,0,9-4,9-9s-4-9-9-9h-63.1c-5,0-9,4-9,9S102.3,387.5,107.3,387.5z"/>
	</g>
	<g>
		<defs>
			<rect id="SVGID_11_" width="512" height="512"/>
		</defs>
		<clipPath id="SVGID_12_">
			<use xlink:href="#SVGID_11_"  style="overflow:visible;"/>
		</clipPath>
		<path class="st5" d="M107.3,423.5h81.1c5,0,9-4,9-9s-4-9-9-9h-81.1c-5,0-9,4-9,9S102.3,423.5,107.3,423.5z"/>
	</g>
	<g>
		<defs>
			<rect id="SVGID_13_" width="512" height="512"/>
		</defs>
		<clipPath id="SVGID_14_">
			<use xlink:href="#SVGID_13_"  style="overflow:visible;"/>
		</clipPath>
		<path class="st6" d="M206.4,441.5h-99.1c-5,0-9,4-9,9s4,9,9,9h99.1c5,0,9-4,9-9S211.4,441.5,206.4,441.5z"/>
	</g>
	<g>
		<defs>
			<rect id="SVGID_15_" width="512" height="512"/>
		</defs>
		<clipPath id="SVGID_16_">
			<use xlink:href="#SVGID_15_"  style="overflow:visible;"/>
		</clipPath>
		<path class="st7" d="M260.5,441.5h-18c-5,0-9,4-9,9s4,9,9,9h18c5,0,9-4,9-9S265.5,441.5,260.5,441.5z"/>
	</g>
</g>
</svg>
