<?xml version="1.0" encoding="utf-8"?>
<!-- Generator: Adobe Illustrator 21.0.0, SVG Export Plug-In . SVG Version: 6.00 Build 0)  -->
<svg version="1.1" id="Layer_1" xmlns="http://www.w3.org/2000/svg" xmlns:xlink="http://www.w3.org/1999/xlink" x="0px" y="0px"
	 viewBox="0 0 512 512" style="enable-background:new 0 0 512 512;" xml:space="preserve">
<style type="text/css">
	.st0{clip-path:url(#SVGID_2_);fill:#FFFFFF;}
</style>
<g>
	<g>
		<defs>
			<rect id="SVGID_1_" width="512" height="512"/>
		</defs>
		<clipPath id="SVGID_2_">
			<use xlink:href="#SVGID_1_"  style="overflow:visible;"/>
		</clipPath>
		<path class="st0" d="M255.7,389.5v4.1c0,5.4,4.4,9.8,9.8,9.8s9.8-4.4,9.8-9.8v-4.1c0-5.4-4.4-9.8-9.8-9.8S255.7,384.1,255.7,389.5
			z M169.4,376.9c-1,13.9-2.9,27.1-5.7,40.3c-1.1,5.3,2.2,10.5,7.5,11.6c0.7,0.1,1.4,0.2,2.1,0.2c4.5,0,8.6-3.1,9.6-7.7
			c3-14.1,5-28.1,6-43c0.4-5.4-3.7-10.1-9.1-10.5C174.5,367.4,169.8,371.5,169.4,376.9z M499.8,269.8c-1.2-3-2.4-5.7-3.4-8.2
			c-9.7-24.8-28-37.8-48.9-34.7L70,281.9c-5.3,0.8-9.1,5.7-8.3,11.1c0.8,5.3,5.8,9,11.1,8.3l377.5-55.1
			c16.3-2.4,24.9,14.9,27.9,22.5c1,2.7,2.3,5.6,3.6,8.7c5.1,12.2,12.9,30.6,10.1,40c-3,10.1-17.1,14.6-32,19.4
			c-19,6.1-40.5,13-44.1,35c-0.9,5.3,2.7,10.4,8.1,11.2c0.5,0.1,1.1,0.1,1.6,0.1c4.7,0,8.9-3.4,9.6-8.2c1.6-9.5,12.7-13.8,30.8-19.6
			c18.2-5.8,38.9-12.5,44.8-32.5C515.4,306.8,506.7,286.3,499.8,269.8z M114.7,363.6c0.5-0.1,1.1-0.2,1.6-0.2l350-51
			c5.3-0.8,9-5.7,8.3-11.1c-0.8-5.3-5.8-9-11.1-8.3l-22.5,3.3l-0.1-5.6c-0.1-5.4-4.6-9.6-10-9.6c-5.4,0.1-9.7,4.6-9.6,10l0.2,8
			l-60.1,8.8l-0.1-5.6c-0.1-5.3-4.5-9.6-9.8-9.6c-0.1,0-0.1,0-0.2,0c-5.4,0.1-9.7,4.6-9.6,10l0.2,8l-60.1,8.8l-0.1-5.6
			c-0.1-5.3-4.5-9.6-9.8-9.6c-0.1,0-0.1,0-0.2,0c-5.4,0.1-9.7,4.6-9.6,10l0.2,8l-60.1,8.8l-0.1-5.6c-0.1-5.4-4.6-9.7-10-9.6
			s-9.7,4.6-9.6,10l0.2,8l-60.1,8.8l-0.1-5.6c-0.1-5.4-4.6-9.7-10-9.6s-9.7,4.6-9.6,10l0.2,7.8c-28.2,2.9-39.8-2.4-47.3-19.8
			c-6.4-14.8-12.4-44.4-6.4-59.1c1.8-4.5,4.2-5.9,5.8-6.5c5-2,7.4-7.7,5.4-12.7s-7.7-7.4-12.7-5.4c-7.4,3-13.2,9-16.5,17.3
			c-9.4,23,0.3,60,6.6,74.3c11.2,25.8,31.4,32.3,52.9,32.3c7.8,0,15.7-0.8,23.4-1.9C114.3,363.7,114.5,363.6,114.7,363.6z
			 M389.6,392.7c-5.2-1.6-10.6,1.3-12.2,6.5s1.3,10.6,6.5,12.2c22.7,7,27.6,13.7,27.6,15c0,1.7-6.8,10.2-38.2,18
			c-28.6,7.2-66.9,11.1-107.7,11.1s-79.1-3.9-107.7-11.1c-31.4-7.8-38.2-16.3-38.2-18c0-1.3,4.9-8,27.6-15c5.2-1.6,8.1-7.1,6.5-12.2
			c-1.6-5.2-7.1-8.1-12.2-6.5c-27.4,8.5-41.3,19.8-41.3,33.7c0,15.8,17.8,28.2,53,37c30.2,7.5,70.1,11.7,112.4,11.7
			s82.3-4.1,112.4-11.7c35.2-8.8,53-21.2,53-37C430.9,412.6,417,401.2,389.6,392.7z M350.7,350.9c-5.4,0.1-9.7,4.6-9.6,10
			c0.5,21.3,2.7,41,6.9,60.4c1,4.6,5,7.7,9.6,7.7c0.7,0,1.4-0.1,2.1-0.2c5.3-1.1,8.7-6.3,7.5-11.6c-3.9-18.1-6-36.7-6.4-56.7
			C360.6,355,356.1,350.7,350.7,350.9z M297.3,52.2C303.2,75.6,322.4,94,341,94h27.6c12.3,0,25.6,5.7,34.7,14.9
			c12.9,13.1,16.6,26.3,13.4,48.5l-6.3,43.8c-0.8,5.3,2.9,10.3,8.3,11.1c0.5,0.1,0.9,0.1,1.4,0.1c4.8,0,9-3.5,9.7-8.4l6.3-43.8
			c4-28.1-1.6-47.6-18.8-65c-12.8-13-31-20.7-48.6-20.7H341c-8.5,0-20.9-11.6-24.8-27.1l-0.8-3.1c-1.3-5.2-6.6-8.4-11.9-7.1
			c-5.2,1.3-8.4,6.6-7.1,11.9L297.3,52.2z M70.4,249.5c-1.4,5.2,1.8,10.6,7,11.9c0.8,0.2,1.7,0.3,2.5,0.3c4.3,0,8.3-2.9,9.5-7.3
			c5.4-20.6-4.8-45.9-24.8-61.4c-1.1-0.8-2.3-1.6-3.4-2.4l2.4-10c1.3-5.3-2-10.5-7.2-11.8c-5.3-1.3-10.5,2-11.8,7.2l-1.7,7.1
			c-6.9-1.8-13.8-2.9-19.6-3.8c-0.8-0.1-1.5-0.2-2.2-0.3l8.6-53.7c0.7,0.1,1.5,0.2,2.3,0.4c10.3,1.6,24.5,3.8,32.5,10
			c4.3,3.3,10.4,2.5,13.7-1.8c3.3-4.3,2.5-10.4-1.8-13.7c-12-9.2-29-11.8-41.4-13.8c-4.3-0.7-8.3-1.3-10.5-2c-2.7-0.8-5.6-0.4-8,1.1
			s-4,4-4.5,6.8L0.1,185.1c-0.8,4.8,2.1,9.5,6.8,10.9c3.6,1.1,8,1.8,13.2,2.6c10.3,1.6,24.5,3.8,32.4,9.9
			C66.1,219,73.8,236.6,70.4,249.5z M323.8,223.6c20.4,0,38.5-6.8,47.2-17.6c1.3-1.6,2-3.5,2.1-5.5c0.1-2.3,0.3-4.6,0.5-7
			c0.6-8.8,1.2-17.9,1.2-27c0-5.4-4.4-9.7-9.8-9.7c0,0,0,0-0.1,0c-5.4,0-9.8,4.4-9.7,9.8c0,8.4-0.5,17.1-1.1,25.6
			c-0.1,1.2-0.2,2.3-0.2,3.5c-5.2,4.3-15.9,8.4-30.1,8.4c-16.3,0-28-5.4-32-10.3c-3.4-4.2-9.5-4.9-13.8-1.5
			c-4.2,3.4-4.9,9.5-1.5,13.8C285.3,216.9,303.4,223.6,323.8,223.6z M176.4,194.5c-0.5-9-0.8-18.3-0.7-27.9c0-5.4-4.3-9.8-9.7-9.8
			s-9.8,4.3-9.8,9.7c-0.1,25.8,2.2,50.8,4.2,69.6c0.5,5,4.8,8.7,9.7,8.7c0.3,0,0.7,0,1.1-0.1c5.4-0.6,9.3-5.4,8.7-10.8
			c-0.5-5-1.1-10.3-1.6-15.7c8.5,3.4,18.7,5.3,29.5,5.3c20.4,0,38.5-6.8,47.2-17.6c3.4-4.2,2.7-10.4-1.5-13.8
			c-4.2-3.4-10.4-2.7-13.8,1.5c-4,5-15.7,10.3-32,10.3C192.2,204.1,180.9,199.2,176.4,194.5z M94.4,160.2c-4-28.1,1.6-47.6,18.8-65
			c12.8-13,31-20.7,48.6-20.7h27.6c8.5,0,20.9-11.6,24.8-27.1l0.8-3.1c1.3-5.2,6.6-8.4,11.9-7.1c5.2,1.3,8.4,6.6,7.1,11.9l-0.8,3.1
			c-5.8,23.4-25,41.8-43.7,41.8h-27.6c-12.3,0-25.6,5.7-34.7,14.9c-12.9,13.1-16.6,26.3-13.4,48.5l12.6,87.9
			c0.8,5.3-2.9,10.3-8.3,11.1c-0.5,0.1-0.9,0.1-1.4,0.1c-4.8,0-9-3.5-9.7-8.4L94.4,160.2z"/>
	</g>
</g>
</svg>
